<svg width="1075" height="96" viewBox="0 0 1075 96" fill="none" xmlns="http://www.w3.org/2000/svg">
<rect x="1" y="1" width="1073" height="94" rx="15" fill="#F5F1FF"/>
<path d="M446.976 46.352H466.848V49.36H446.976V46.352ZM446.976 41.392H466.848V44.4H446.976V41.392ZM444.928 51.376H467.2V54.672H444.928V51.376ZM466.464 51.376H470.336C470.336 51.376 470.304 52.368 470.24 52.88C469.856 59.6 469.44 62.448 468.512 63.504C467.808 64.368 467.072 64.624 466.08 64.752C465.216 64.88 463.712 64.912 462.144 64.848C462.112 63.792 461.664 62.288 461.12 61.296C462.368 61.456 463.552 61.488 464.128 61.456C464.64 61.456 464.928 61.392 465.184 61.104C465.76 60.464 466.144 58.096 466.464 51.952V51.376ZM454.208 56.848L457.184 56.144C458.08 58 458.88 60.432 459.136 62L455.968 62.832C455.776 61.264 455.04 58.768 454.208 56.848ZM459.36 56.336L462.144 55.376C463.104 56.752 464.128 58.608 464.544 59.856L461.568 60.944C461.216 59.696 460.256 57.744 459.36 56.336ZM448.704 56.976L451.936 56.432C452.608 58.544 453.088 61.232 453.184 63.056L449.76 63.632C449.76 61.84 449.28 59.088 448.704 56.976ZM444.128 55.504L447.52 56.432C446.912 59.568 445.984 62.704 443.84 64.688L440.704 62.704C442.592 61.008 443.648 58.32 444.128 55.504ZM454.496 37.872H458.304V52.688H454.496V37.872ZM444.928 36.08H468V39.376H448.704V52.976H444.928V36.08ZM487.712 44.432H501.024V48.304H487.712V44.432ZM474.016 59.44H503.264V63.312H474.016V59.44ZM485.536 35.216H489.664V61.584H485.536V35.216ZM517.44 37.328H535.584V40.368H517.44V37.328ZM527.264 60.816L529.6 58.448C531.776 59.472 534.816 61.136 536.352 62.288L533.856 64.944C532.448 63.76 529.472 61.968 527.264 60.816ZM522.656 58.384L525.696 60.656C523.52 62.16 520.192 63.824 517.664 64.816C517.088 64.08 516.064 62.96 515.264 62.224C517.792 61.328 520.992 59.696 522.656 58.384ZM516.416 55.792H536.352V59.056H516.416V55.792ZM520.512 45.776H532.48V47.76H520.512V45.776ZM520.512 49.008H532.704V51.056H520.512V49.008ZM520.544 52.368H532.16V54.448H520.544V52.368ZM518.912 41.968H533.856V56.752H530.4V44.432H522.24V56.752H518.912V41.968ZM524.512 34.896L528.576 35.024C528 38.224 527.104 41.776 526.368 44.048L523.232 43.728C523.776 41.296 524.32 37.584 524.512 34.896ZM506.4 42.256H516.512V45.872H506.4V42.256ZM509.6 35.28H513.216V56.656H509.6V35.28ZM505.984 57.104C508.512 56.4 512.448 55.12 516.16 53.872L516.768 57.264C513.568 58.576 510.144 59.92 507.36 60.944L505.984 57.104ZM541.088 37.136H566.944V40.4H541.088V37.136ZM542.656 42.096H565.696V45.136H542.656V42.096ZM539.712 46.928H568.064V50.16H539.712V46.928ZM551.872 34.832H555.776V49.52H551.872V34.832ZM551.36 47.76L554.688 49.264C551.456 53.232 546.112 56.72 541.088 58.576C540.512 57.648 539.392 56.24 538.56 55.472C543.424 53.968 548.704 50.928 551.36 47.76ZM556.736 48.88C558.688 54.64 562.752 58.96 569.184 60.752C568.32 61.552 567.2 63.088 566.656 64.144C559.744 61.776 555.712 56.816 553.28 49.744L556.736 48.88ZM564.48 50.768L567.68 53.136C565.312 54.864 562.528 56.624 560.352 57.712L557.92 55.696C560 54.448 562.816 52.4 564.48 50.768ZM545.44 64.88L545.024 61.584L546.624 60.336L556.384 57.648C556.48 58.704 556.8 60.24 557.024 61.072C547.872 63.792 546.368 64.272 545.44 64.88ZM545.44 64.88C545.184 63.952 544.448 62.256 543.84 61.456C544.544 61.072 545.44 60.304 545.44 58.896V53.232H549.44V61.552C549.44 61.552 545.44 63.632 545.44 64.88ZM584.416 45.52H588.416V64.88H584.416V45.52ZM579.04 51.184V52.912H594.176V51.184H579.04ZM579.04 46.736V48.432H594.176V46.736H579.04ZM575.264 43.792H598.112V55.856H575.264V43.792ZM572.256 57.52H600.928V60.816H572.256V57.52ZM577.536 38.384V40.24H582.048V38.384H577.536ZM574.112 36.08H585.632V42.512H574.112V36.08ZM590.944 38.384V40.24H595.552V38.384H590.944ZM587.552 36.08H599.136V42.512H587.552V36.08ZM617.536 53.776L616.704 42.832L616.544 38.064H621.824L621.664 42.832L620.832 53.776H617.536ZM619.2 62.32C617.536 62.32 616.352 61.136 616.352 59.472C616.352 57.808 617.568 56.656 619.2 56.656C620.8 56.656 622.016 57.808 622.016 59.472C622.016 61.136 620.8 62.32 619.2 62.32Z" fill="#363636"/>
<rect x="1" y="1" width="1073" height="94" rx="15" stroke="#363636" stroke-width="2"/>
</svg>
