<svg width="1075" height="96" viewBox="0 0 1075 96" fill="none" xmlns="http://www.w3.org/2000/svg">
<rect x="1" y="1" width="1073" height="94" rx="15" fill="#F5F1FF"/>
<path d="M403.976 46.352H423.848V49.36H403.976V46.352ZM403.976 41.392H423.848V44.4H403.976V41.392ZM401.928 51.376H424.2V54.672H401.928V51.376ZM423.464 51.376H427.336C427.336 51.376 427.304 52.368 427.24 52.88C426.856 59.6 426.44 62.448 425.512 63.504C424.808 64.368 424.072 64.624 423.08 64.752C422.216 64.88 420.712 64.912 419.144 64.848C419.112 63.792 418.664 62.288 418.12 61.296C419.368 61.456 420.552 61.488 421.128 61.456C421.64 61.456 421.928 61.392 422.184 61.104C422.76 60.464 423.144 58.096 423.464 51.952V51.376ZM411.208 56.848L414.184 56.144C415.08 58 415.88 60.432 416.136 62L412.968 62.832C412.776 61.264 412.04 58.768 411.208 56.848ZM416.36 56.336L419.144 55.376C420.104 56.752 421.128 58.608 421.544 59.856L418.568 60.944C418.216 59.696 417.256 57.744 416.36 56.336ZM405.704 56.976L408.936 56.432C409.608 58.544 410.088 61.232 410.184 63.056L406.76 63.632C406.76 61.84 406.28 59.088 405.704 56.976ZM401.128 55.504L404.52 56.432C403.912 59.568 402.984 62.704 400.84 64.688L397.704 62.704C399.592 61.008 400.648 58.32 401.128 55.504ZM411.496 37.872H415.304V52.688H411.496V37.872ZM401.928 36.08H425V39.376H405.704V52.976H401.928V36.08ZM444.712 44.432H458.024V48.304H444.712V44.432ZM431.016 59.44H460.264V63.312H431.016V59.44ZM442.536 35.216H446.664V61.584H442.536V35.216ZM474.44 37.328H492.584V40.368H474.44V37.328ZM484.264 60.816L486.6 58.448C488.776 59.472 491.816 61.136 493.352 62.288L490.856 64.944C489.448 63.76 486.472 61.968 484.264 60.816ZM479.656 58.384L482.696 60.656C480.52 62.16 477.192 63.824 474.664 64.816C474.088 64.08 473.064 62.96 472.264 62.224C474.792 61.328 477.992 59.696 479.656 58.384ZM473.416 55.792H493.352V59.056H473.416V55.792ZM477.512 45.776H489.48V47.76H477.512V45.776ZM477.512 49.008H489.704V51.056H477.512V49.008ZM477.544 52.368H489.16V54.448H477.544V52.368ZM475.912 41.968H490.856V56.752H487.4V44.432H479.24V56.752H475.912V41.968ZM481.512 34.896L485.576 35.024C485 38.224 484.104 41.776 483.368 44.048L480.232 43.728C480.776 41.296 481.32 37.584 481.512 34.896ZM463.4 42.256H473.512V45.872H463.4V42.256ZM466.6 35.28H470.216V56.656H466.6V35.28ZM462.984 57.104C465.512 56.4 469.448 55.12 473.16 53.872L473.768 57.264C470.568 58.576 467.144 59.92 464.36 60.944L462.984 57.104ZM498.088 37.136H523.944V40.4H498.088V37.136ZM499.656 42.096H522.696V45.136H499.656V42.096ZM496.712 46.928H525.064V50.16H496.712V46.928ZM508.872 34.832H512.776V49.52H508.872V34.832ZM508.36 47.76L511.688 49.264C508.456 53.232 503.112 56.72 498.088 58.576C497.512 57.648 496.392 56.24 495.56 55.472C500.424 53.968 505.704 50.928 508.36 47.76ZM513.736 48.88C515.688 54.64 519.752 58.96 526.184 60.752C525.32 61.552 524.2 63.088 523.656 64.144C516.744 61.776 512.712 56.816 510.28 49.744L513.736 48.88ZM521.48 50.768L524.68 53.136C522.312 54.864 519.528 56.624 517.352 57.712L514.92 55.696C517 54.448 519.816 52.4 521.48 50.768ZM502.44 64.88L502.024 61.584L503.624 60.336L513.384 57.648C513.48 58.704 513.8 60.24 514.024 61.072C504.872 63.792 503.368 64.272 502.44 64.88ZM502.44 64.88C502.184 63.952 501.448 62.256 500.84 61.456C501.544 61.072 502.44 60.304 502.44 58.896V53.232H506.44V61.552C506.44 61.552 502.44 63.632 502.44 64.88ZM541.416 45.52H545.416V64.88H541.416V45.52ZM536.04 51.184V52.912H551.176V51.184H536.04ZM536.04 46.736V48.432H551.176V46.736H536.04ZM532.264 43.792H555.112V55.856H532.264V43.792ZM529.256 57.52H557.928V60.816H529.256V57.52ZM534.536 38.384V40.24H539.048V38.384H534.536ZM531.112 36.08H542.632V42.512H531.112V36.08ZM547.944 38.384V40.24H552.552V38.384H547.944ZM544.552 36.08H556.136V42.512H544.552V36.08ZM574.536 53.776L573.704 42.832L573.544 38.064H578.824L578.664 42.832L577.832 53.776H574.536ZM576.2 62.32C574.536 62.32 573.352 61.136 573.352 59.472C573.352 57.808 574.568 56.656 576.2 56.656C577.8 56.656 579.016 57.808 579.016 59.472C579.016 61.136 577.8 62.32 576.2 62.32Z" fill="#363636"/>
<path d="M677 48C677 53.0523 672.707 53.6712 670.622 57.92C669.013 61.1992 669.981 68.3227 667.4 70.8526C664.765 73.4357 658.564 71.4066 655.165 72.96C651.118 74.8094 649.74 80 645 80C640.26 80 638.487 74.8094 634.44 72.96C631.041 71.4066 625.235 73.4357 622.6 70.8526C620.019 68.3227 620.592 61.1992 618.982 57.92C616.897 53.6712 613 53.0523 613 48C613 43.3247 617.523 40.4276 619.325 36.4239C620.973 32.7619 619.77 27.9219 622.6 25.1474C625.028 22.7669 631.354 22.3143 634.44 20.8C638.689 18.7148 639.948 16 645 16C649.305 16 652.451 20.2187 656.2 21.76C660.046 23.3414 664.477 22.2819 667.4 25.1474C670.23 27.9219 670.552 34.7379 672.2 38.4C674.002 42.4036 677 43.3247 677 48Z" fill="#E4D8F7"/>
<path d="M644.84 51.52C644.667 51.7067 644.393 51.9 644.02 52.1C643.647 52.2867 643.213 52.46 642.72 52.62C642.24 52.78 641.747 52.9067 641.24 53C640.733 53.1067 640.253 53.16 639.8 53.16C638.6 53.16 637.52 52.9867 636.56 52.64C635.6 52.28 634.78 51.7867 634.1 51.16C633.42 50.52 632.9 49.7667 632.54 48.9C632.18 48.0333 632 47.0867 632 46.06C632 44.7133 632.2 43.5467 632.6 42.56C633.013 41.56 633.567 40.7333 634.26 40.08C634.967 39.4133 635.773 38.92 636.68 38.6C637.6 38.28 638.56 38.12 639.56 38.12C640.507 38.12 641.373 38.2267 642.16 38.44C642.947 38.64 643.613 38.8933 644.16 39.2L643.22 41.9C642.98 41.7667 642.66 41.6333 642.26 41.5C641.86 41.3667 641.453 41.26 641.04 41.18C640.627 41.0867 640.26 41.04 639.94 41.04C639.14 41.04 638.433 41.14 637.82 41.34C637.207 41.54 636.687 41.84 636.26 42.24C635.847 42.64 635.533 43.14 635.32 43.74C635.107 44.3267 635 45.0133 635 45.8C635 46.4933 635.12 47.12 635.36 47.68C635.6 48.2267 635.933 48.6933 636.36 49.08C636.8 49.4667 637.313 49.76 637.9 49.96C638.5 50.16 639.16 50.26 639.88 50.26C640.293 50.26 640.673 50.2333 641.02 50.18C641.367 50.1133 641.66 50.0133 641.9 49.88V48.1H639.36V45.3H644.84V51.52ZM647.394 48.52C647.394 47.6267 647.601 46.8267 648.014 46.12C648.441 45.4133 649.034 44.86 649.794 44.46C650.554 44.0467 651.428 43.84 652.414 43.84C653.414 43.84 654.281 44.0467 655.014 44.46C655.748 44.86 656.308 45.4133 656.694 46.12C657.094 46.8267 657.294 47.6267 657.294 48.52C657.294 49.4133 657.094 50.22 656.694 50.94C656.308 51.6467 655.748 52.2067 655.014 52.62C654.281 53.0333 653.401 53.24 652.374 53.24C651.414 53.24 650.554 53.0533 649.794 52.68C649.048 52.3067 648.461 51.7667 648.034 51.06C647.608 50.3533 647.394 49.5067 647.394 48.52ZM650.214 48.54C650.214 48.9933 650.308 49.4067 650.494 49.78C650.681 50.14 650.934 50.4267 651.254 50.64C651.574 50.8533 651.934 50.96 652.334 50.96C652.774 50.96 653.154 50.8533 653.474 50.64C653.794 50.4267 654.041 50.14 654.214 49.78C654.388 49.4067 654.474 48.9933 654.474 48.54C654.474 48.0733 654.388 47.66 654.214 47.3C654.041 46.94 653.794 46.6533 653.474 46.44C653.154 46.2267 652.774 46.12 652.334 46.12C651.934 46.12 651.574 46.2267 651.254 46.44C650.934 46.6533 650.681 46.94 650.494 47.3C650.308 47.66 650.214 48.0733 650.214 48.54Z" fill="#363636"/>
<rect x="1" y="1" width="1073" height="94" rx="15" stroke="#363636" stroke-width="2"/>
</svg>
