<svg width="1076" height="96" viewBox="0 0 1076 96" fill="none" xmlns="http://www.w3.org/2000/svg">
<rect x="1" y="1" width="1074" height="94" rx="15" fill="#E6EBFF"/>
<path d="M462.976 46.352H482.848V49.36H462.976V46.352ZM462.976 41.392H482.848V44.4H462.976V41.392ZM460.928 51.376H483.2V54.672H460.928V51.376ZM482.464 51.376H486.336C486.336 51.376 486.304 52.368 486.24 52.88C485.856 59.6 485.44 62.448 484.512 63.504C483.808 64.368 483.072 64.624 482.08 64.752C481.216 64.88 479.712 64.912 478.144 64.848C478.112 63.792 477.664 62.288 477.12 61.296C478.368 61.456 479.552 61.488 480.128 61.456C480.64 61.456 480.928 61.392 481.184 61.104C481.76 60.464 482.144 58.096 482.464 51.952V51.376ZM470.208 56.848L473.184 56.144C474.08 58 474.88 60.432 475.136 62L471.968 62.832C471.776 61.264 471.04 58.768 470.208 56.848ZM475.36 56.336L478.144 55.376C479.104 56.752 480.128 58.608 480.544 59.856L477.568 60.944C477.216 59.696 476.256 57.744 475.36 56.336ZM464.704 56.976L467.936 56.432C468.608 58.544 469.088 61.232 469.184 63.056L465.76 63.632C465.76 61.84 465.28 59.088 464.704 56.976ZM460.128 55.504L463.52 56.432C462.912 59.568 461.984 62.704 459.84 64.688L456.704 62.704C458.592 61.008 459.648 58.32 460.128 55.504ZM470.496 37.872H474.304V52.688H470.496V37.872ZM460.928 36.08H484V39.376H464.704V52.976H460.928V36.08ZM503.712 44.432H517.024V48.304H503.712V44.432ZM490.016 59.44H519.264V63.312H490.016V59.44ZM501.536 35.216H505.664V61.584H501.536V35.216ZM539.36 47.216H549.152V50.256H539.36V47.216ZM537.568 36.176H549.344V39.536H541.056V64.848H537.568V36.176ZM547.296 36.176H550.848V42.224C550.848 43.856 550.528 44.816 549.28 45.328C548.032 45.84 546.304 45.872 543.936 45.872C543.808 44.88 543.328 43.504 542.88 42.576C544.448 42.64 546.208 42.64 546.656 42.64C547.168 42.608 547.296 42.512 547.296 42.16V36.176ZM543.392 49.2C544.992 54.512 548.192 59.344 552.736 61.616C551.904 62.32 550.784 63.696 550.208 64.656C545.44 61.808 542.304 56.304 540.512 49.936L543.392 49.2ZM548.032 47.216H548.704L549.312 47.056L551.616 47.888C550.464 55.184 547.456 61.392 542.56 64.944C542.016 64.08 540.864 62.96 540.032 62.32C544.48 59.28 547.2 53.776 548.032 47.952V47.216ZM523.392 37.68H535.968V40.848H523.392V37.68ZM522.464 55.792H536.736V59.024H522.464V55.792ZM522.464 43.056H536.704V46.288H522.464V43.056ZM523.232 50H536.096V53.232H523.232V50ZM528.032 34.928H531.584V44.272H528.032V34.928ZM528.032 51.344H531.584V64.784H528.032V51.344ZM532.288 45.968L535.488 46.768C534.592 48.592 533.664 50.48 532.864 51.728L530.144 50.96C530.912 49.616 531.84 47.504 532.288 45.968ZM524.352 46.832L527.136 46C527.744 47.12 528.352 48.592 528.544 49.552L525.6 50.48C525.44 49.52 524.896 47.984 524.352 46.832ZM566.112 60.144H580.448V63.632H566.112V60.144ZM564.512 37.968H575.84V41.36H564.512V37.968ZM565.344 34.64L569.664 35.504C566.944 40.176 563.104 44.464 557.344 47.92C556.8 46.96 555.52 45.552 554.656 44.88C559.936 42.096 563.488 38.192 565.344 34.64ZM574.624 37.968H575.36L576 37.776L578.656 39.184C574.912 49.136 566.368 55.664 556.832 58.864C556.352 57.808 555.392 56.24 554.592 55.44C563.424 52.88 571.68 46.672 574.624 38.608V37.968ZM560.32 45.008L563.168 42.512C565.376 44.08 568.288 46.352 569.696 48.016L566.592 50.8C565.376 49.136 562.528 46.672 560.32 45.008ZM578.656 50.384H582.656V64.912H578.656V50.384ZM567.744 50.384H580.576V53.872H567.744V64.848H563.904V53.232L566.816 50.384H567.744ZM600.896 53.776L600.064 42.832L599.904 38.064H605.184L605.024 42.832L604.192 53.776H600.896ZM602.56 62.32C600.896 62.32 599.712 61.136 599.712 59.472C599.712 57.808 600.928 56.656 602.56 56.656C604.16 56.656 605.376 57.808 605.376 59.472C605.376 61.136 604.16 62.32 602.56 62.32Z" fill="#363636"/>
<rect x="1" y="1" width="1074" height="94" rx="15" stroke="#363636" stroke-width="2"/>
</svg>
