<svg width="1076" height="96" viewBox="0 0 1076 96" fill="none" xmlns="http://www.w3.org/2000/svg">
<rect x="1" y="1" width="1074" height="94" rx="15" fill="#E6EBFF"/>
<path d="M421.976 46.352H441.848V49.36H421.976V46.352ZM421.976 41.392H441.848V44.4H421.976V41.392ZM419.928 51.376H442.2V54.672H419.928V51.376ZM441.464 51.376H445.336C445.336 51.376 445.304 52.368 445.24 52.88C444.856 59.6 444.44 62.448 443.512 63.504C442.808 64.368 442.072 64.624 441.08 64.752C440.216 64.88 438.712 64.912 437.144 64.848C437.112 63.792 436.664 62.288 436.12 61.296C437.368 61.456 438.552 61.488 439.128 61.456C439.64 61.456 439.928 61.392 440.184 61.104C440.76 60.464 441.144 58.096 441.464 51.952V51.376ZM429.208 56.848L432.184 56.144C433.08 58 433.88 60.432 434.136 62L430.968 62.832C430.776 61.264 430.04 58.768 429.208 56.848ZM434.36 56.336L437.144 55.376C438.104 56.752 439.128 58.608 439.544 59.856L436.568 60.944C436.216 59.696 435.256 57.744 434.36 56.336ZM423.704 56.976L426.936 56.432C427.608 58.544 428.088 61.232 428.184 63.056L424.76 63.632C424.76 61.84 424.28 59.088 423.704 56.976ZM419.128 55.504L422.52 56.432C421.912 59.568 420.984 62.704 418.84 64.688L415.704 62.704C417.592 61.008 418.648 58.32 419.128 55.504ZM429.496 37.872H433.304V52.688H429.496V37.872ZM419.928 36.08H443V39.376H423.704V52.976H419.928V36.08ZM462.712 44.432H476.024V48.304H462.712V44.432ZM449.016 59.44H478.264V63.312H449.016V59.44ZM460.536 35.216H464.664V61.584H460.536V35.216ZM498.36 47.216H508.152V50.256H498.36V47.216ZM496.568 36.176H508.344V39.536H500.056V64.848H496.568V36.176ZM506.296 36.176H509.848V42.224C509.848 43.856 509.528 44.816 508.28 45.328C507.032 45.84 505.304 45.872 502.936 45.872C502.808 44.88 502.328 43.504 501.88 42.576C503.448 42.64 505.208 42.64 505.656 42.64C506.168 42.608 506.296 42.512 506.296 42.16V36.176ZM502.392 49.2C503.992 54.512 507.192 59.344 511.736 61.616C510.904 62.32 509.784 63.696 509.208 64.656C504.44 61.808 501.304 56.304 499.512 49.936L502.392 49.2ZM507.032 47.216H507.704L508.312 47.056L510.616 47.888C509.464 55.184 506.456 61.392 501.56 64.944C501.016 64.08 499.864 62.96 499.032 62.32C503.48 59.28 506.2 53.776 507.032 47.952V47.216ZM482.392 37.68H494.968V40.848H482.392V37.68ZM481.464 55.792H495.736V59.024H481.464V55.792ZM481.464 43.056H495.704V46.288H481.464V43.056ZM482.232 50H495.096V53.232H482.232V50ZM487.032 34.928H490.584V44.272H487.032V34.928ZM487.032 51.344H490.584V64.784H487.032V51.344ZM491.288 45.968L494.488 46.768C493.592 48.592 492.664 50.48 491.864 51.728L489.144 50.96C489.912 49.616 490.84 47.504 491.288 45.968ZM483.352 46.832L486.136 46C486.744 47.12 487.352 48.592 487.544 49.552L484.6 50.48C484.44 49.52 483.896 47.984 483.352 46.832ZM525.112 60.144H539.448V63.632H525.112V60.144ZM523.512 37.968H534.84V41.36H523.512V37.968ZM524.344 34.64L528.664 35.504C525.944 40.176 522.104 44.464 516.344 47.92C515.8 46.96 514.52 45.552 513.656 44.88C518.936 42.096 522.488 38.192 524.344 34.64ZM533.624 37.968H534.36L535 37.776L537.656 39.184C533.912 49.136 525.368 55.664 515.832 58.864C515.352 57.808 514.392 56.24 513.592 55.44C522.424 52.88 530.68 46.672 533.624 38.608V37.968ZM519.32 45.008L522.168 42.512C524.376 44.08 527.288 46.352 528.696 48.016L525.592 50.8C524.376 49.136 521.528 46.672 519.32 45.008ZM537.656 50.384H541.656V64.912H537.656V50.384ZM526.744 50.384H539.576V53.872H526.744V64.848H522.904V53.232L525.816 50.384H526.744ZM559.896 53.776L559.064 42.832L558.904 38.064H564.184L564.024 42.832L563.192 53.776H559.896ZM561.56 62.32C559.896 62.32 558.712 61.136 558.712 59.472C558.712 57.808 559.928 56.656 561.56 56.656C563.16 56.656 564.376 57.808 564.376 59.472C564.376 61.136 563.16 62.32 561.56 62.32Z" fill="#363636"/>
<path d="M662 48C662 53.0523 657.707 53.6712 655.622 57.92C654.013 61.1992 654.981 68.3227 652.4 70.8526C649.765 73.4357 643.564 71.4066 640.165 72.96C636.118 74.8094 634.74 80 630 80C625.26 80 623.487 74.8094 619.44 72.96C616.041 71.4066 610.235 73.4357 607.6 70.8526C605.019 68.3227 605.592 61.1992 603.982 57.92C601.897 53.6712 598 53.0523 598 48C598 43.3247 602.523 40.4276 604.325 36.4239C605.973 32.7619 604.77 27.9219 607.6 25.1474C610.028 22.7669 616.354 22.3143 619.44 20.8C623.689 18.7148 624.948 16 630 16C634.305 16 637.451 20.2187 641.2 21.76C645.046 23.3414 649.477 22.2819 652.4 25.1474C655.23 27.9219 655.552 34.7379 657.2 38.4C659.002 42.4036 662 43.3247 662 48Z" fill="#BFCCFF"/>
<path d="M629.84 51.52C629.667 51.7067 629.393 51.9 629.02 52.1C628.647 52.2867 628.213 52.46 627.72 52.62C627.24 52.78 626.747 52.9067 626.24 53C625.733 53.1067 625.253 53.16 624.8 53.16C623.6 53.16 622.52 52.9867 621.56 52.64C620.6 52.28 619.78 51.7867 619.1 51.16C618.42 50.52 617.9 49.7667 617.54 48.9C617.18 48.0333 617 47.0867 617 46.06C617 44.7133 617.2 43.5467 617.6 42.56C618.013 41.56 618.567 40.7333 619.26 40.08C619.967 39.4133 620.773 38.92 621.68 38.6C622.6 38.28 623.56 38.12 624.56 38.12C625.507 38.12 626.373 38.2267 627.16 38.44C627.947 38.64 628.613 38.8933 629.16 39.2L628.22 41.9C627.98 41.7667 627.66 41.6333 627.26 41.5C626.86 41.3667 626.453 41.26 626.04 41.18C625.627 41.0867 625.26 41.04 624.94 41.04C624.14 41.04 623.433 41.14 622.82 41.34C622.207 41.54 621.687 41.84 621.26 42.24C620.847 42.64 620.533 43.14 620.32 43.74C620.107 44.3267 620 45.0133 620 45.8C620 46.4933 620.12 47.12 620.36 47.68C620.6 48.2267 620.933 48.6933 621.36 49.08C621.8 49.4667 622.313 49.76 622.9 49.96C623.5 50.16 624.16 50.26 624.88 50.26C625.293 50.26 625.673 50.2333 626.02 50.18C626.367 50.1133 626.66 50.0133 626.9 49.88V48.1H624.36V45.3H629.84V51.52ZM632.394 48.52C632.394 47.6267 632.601 46.8267 633.014 46.12C633.441 45.4133 634.034 44.86 634.794 44.46C635.554 44.0467 636.428 43.84 637.414 43.84C638.414 43.84 639.281 44.0467 640.014 44.46C640.748 44.86 641.308 45.4133 641.694 46.12C642.094 46.8267 642.294 47.6267 642.294 48.52C642.294 49.4133 642.094 50.22 641.694 50.94C641.308 51.6467 640.748 52.2067 640.014 52.62C639.281 53.0333 638.401 53.24 637.374 53.24C636.414 53.24 635.554 53.0533 634.794 52.68C634.048 52.3067 633.461 51.7667 633.034 51.06C632.608 50.3533 632.394 49.5067 632.394 48.52ZM635.214 48.54C635.214 48.9933 635.308 49.4067 635.494 49.78C635.681 50.14 635.934 50.4267 636.254 50.64C636.574 50.8533 636.934 50.96 637.334 50.96C637.774 50.96 638.154 50.8533 638.474 50.64C638.794 50.4267 639.041 50.14 639.214 49.78C639.388 49.4067 639.474 48.9933 639.474 48.54C639.474 48.0733 639.388 47.66 639.214 47.3C639.041 46.94 638.794 46.6533 638.474 46.44C638.154 46.2267 637.774 46.12 637.334 46.12C636.934 46.12 636.574 46.2267 636.254 46.44C635.934 46.6533 635.681 46.94 635.494 47.3C635.308 47.66 635.214 48.0733 635.214 48.54Z" fill="#363636"/>
<rect x="1" y="1" width="1074" height="94" rx="15" stroke="#363636" stroke-width="2"/>
</svg>
